# xmcd CD database generated by RipIT
#
# Track frame offsets:
# 150
# 11890
# 24695
# 38267
# 49247
# 62137
# 74070
# 88262
# 106045
# 124992
# 135205
# 152620
# 165282
# 183497
# 197837
# 212110
# 224297
#
# Disc length: 3262 seconds
#
# Revision: 2
# Processed by: cddbd v1.5.2PL0 Copyright (c) Steve Scherf et al.
# Submitted via: RipIT 3.9.0 www.suwald.com/ripit/ripit.html on 2016-06-26 at 09:07
#
DISCID=ef0cbc11
DTITLE=Long Ryders, The - Native Sons/10-5-60
DYEAR=1983
DGENRE=Folk-Rock
TTITLE0=Final Wild Son
TTITLE1=Still Get By
TTITLE2=Ivory Tower
TTITLE3=Run Dusty Run
TTITLE4=(Sweet) Mental Revenge
TTITLE5=Fair Game
TTITLE6=Tell It to the Judge on Sunday
TTITLE7=Wreck of the 809
TTITLE8=Too Close to the Light
TTITLE9=Never Got to Meet the Mom
TTITLE10=I had a Dream
TTITLE11=Join My Gang
TTITLE12=You Don't Know What's Right, You Don't Know What's Wrong
TTITLE13=10-5-60
TTITLE14=Born to Believe in You
TTITLE15=The Trip
TTITLE16=And She Rides
EXTD=
EXTT0=
EXTT1=
EXTT2=
EXTT3=
EXTT4=
EXTT5=
EXTT6=
EXTT7=
EXTT8=
EXTT9=
EXTT10=
EXTT11=
EXTT12=
EXTT13=
EXTT14=
EXTT15=
EXTT16=
PLAYORDER=
